{
    "asset" : {
        "generator" : "Khronos glTF Blender I/O v3.3.32",
        "version" : "2.0"
    },
    "scene" : 0,
    "scenes" : [
        {
            "name" : "Scene",
            "nodes" : [
                0
            ]
        }
    ],
    "nodes" : [
        {
            "mesh" : 0,
            "name" : "Sphere",
            "rotation" : [
                0.08546987920999527,
                -0.012830706313252449,
                -0.0014451158931478858,
                0.9962571859359741
            ],
            "scale" : [
                2.522922992706299,
                1.453119158744812,
                3.455026626586914
            ],
            "translation" : [
                0.09633827209472656,
                -0.6254615783691406,
                1.0317001342773438
            ]
        }
    ],
    "materials" : [
        {
            "doubleSided" : true,
            "name" : "Material",
            "pbrMetallicRoughness" : {
                "baseColorFactor" : [
                    0.8443690538406372,
                    0.9416729211807251,
                    1,
                    1
                ],
                "metallicFactor" : 0,
                "roughnessFactor" : 0.5
            }
        }
    ],
    "meshes" : [
        {
            "name" : "Sphere",
            "primitives" : [
                {
                    "attributes" : {
                        "POSITION" : 0,
                        "NORMAL" : 1,
                        "COLOR_0" : 2
                    },
                    "indices" : 3,
                    "material" : 0
                }
            ]
        }
    ],
    "accessors" : [
        {
            "bufferView" : 0,
            "componentType" : 5126,
            "count" : 4046,
            "max" : [
                1.256088137626648,
                3.9471311569213867,
                0.9274868965148926
            ],
            "min" : [
                -1.1697486639022827,
                -3.2947311401367188,
                -1.4945054054260254
            ],
            "type" : "VEC3"
        },
        {
            "bufferView" : 1,
            "componentType" : 5126,
            "count" : 4046,
            "type" : "VEC3"
        },
        {
            "bufferView" : 2,
            "componentType" : 5123,
            "count" : 4046,
            "normalized" : true,
            "type" : "VEC4"
        },
        {
            "bufferView" : 3,
            "componentType" : 5123,
            "count" : 19671,
            "type" : "SCALAR"
        }
    ],
    "bufferViews" : [
        {
            "buffer" : 0,
            "byteLength" : 48552,
            "byteOffset" : 0,
            "target" : 34962
        },
        {
            "buffer" : 0,
            "byteLength" : 48552,
            "byteOffset" : 48552,
            "target" : 34962
        },
        {
            "buffer" : 0,
            "byteLength" : 32368,
            "byteOffset" : 97104,
            "target" : 34962
        },
        {
            "buffer" : 0,
            "byteLength" : 39342,
            "byteOffset" : 129472,
            "target" : 34963
        }
    ],
    "buffers" : [
        {
            "byteLength" : 168816,
            "uri" : "data:application/octet-stream;base64,"
        }
    ]
}
